<svg xmlns="http://www.w3.org/2000/svg" width="550" height="407" viewBox="0 0 550 407">
  <defs>
    <style>
      .cls-1 {
        stroke: #000;
        stroke-width: 1px;
        fill-rule: evenodd;
      }
    </style>
  </defs>
  <path id="shoe_2_1" data-name="shoe 2 1" class="cls-1" d="M332.717,129.4c-6.569-1.618-11.265.524-16.9,1.546-4.123.747-8.024,8.544-6.019,7.543-8.174,4.082-7.4,15.829-14.553,14.7-6.9-1.091-13.517-2.343-18.68-6.533-3.634-2.95-6.253-6.52-11.779-7.1-16.548-1.733-10.617.666-12.731,1.9-10.8,7.3-19.178,24.743-32.045,38.4-5.385,5.714-35.109,24.422-35.572,28.306-1.71,14.339-26.009,12.759-33.585,22.383a17.3,17.3,0,0,0-3.575,23.938c15.54,16.808,120.653-15.211,158.01-33.521,18.672-9.151,42.506-10.254,55.805-24.37-4.127-18.6-9.047-34.081-18.932-48.171C338.626,143.376,337.07,133.875,332.717,129.4ZM40.364,227.718"/>
  <path id="Polygon_1" data-name="Polygon 1" class="cls-1" d="M184.642,179.017s0.518,4.13,2.344,5.727a5.409,5.409,0,0,0,3.907,1.44s-3.211,1.205-3.907,2.106a20.806,20.806,0,0,0-2.6,5.182,12.558,12.558,0,0,0-2.084-4.91,8.23,8.23,0,0,0-3.906-2.378,6.074,6.074,0,0,0,4.427-1.712C184.33,182.739,184.642,179.017,184.642,179.017Z"/>
  <path id="Polygon_1_copy" data-name="Polygon 1 copy" class="cls-1" d="M206.642,152.017s0.518,4.13,2.344,5.727a5.409,5.409,0,0,0,3.907,1.44s-3.211,1.205-3.907,2.106a20.806,20.806,0,0,0-2.6,5.182,12.558,12.558,0,0,0-2.084-4.91,8.23,8.23,0,0,0-3.906-2.378,6.074,6.074,0,0,0,4.427-1.712C206.33,155.739,206.642,152.017,206.642,152.017Z"/>
  <path id="Polygon_1_copy_2" data-name="Polygon 1 copy 2" class="cls-1" d="M235.642,133.017s0.518,4.13,2.344,5.727a5.409,5.409,0,0,0,3.907,1.44s-3.211,1.205-3.907,2.106a20.806,20.806,0,0,0-2.6,5.182,12.558,12.558,0,0,0-2.084-4.91,8.23,8.23,0,0,0-3.906-2.378,6.074,6.074,0,0,0,4.427-1.712C235.33,136.739,235.642,133.017,235.642,133.017Z"/>
</svg>
